# Blender v2.81 (sub 16) OBJ File: ''
# www.blender.org
mtllib house.mtl
o AnyConv.com__house
v 0.082370 -0.200000 7.897458
v 0.082370 -0.200000 8.002958
v -0.033747 -0.200000 8.002958
v -0.033747 -0.200000 7.897458
v 3.038765 0.200000 2.041142
v 3.038765 0.200000 1.912296
v 3.038765 2.837431 1.912296
v 3.038765 2.837431 2.041142
v 7.966250 -0.200000 7.897459
v 7.966248 0.200000 7.897464
v 7.966248 0.200000 8.002965
v 7.966250 -0.200000 8.002960
v 0.082369 0.200000 8.002957
v -0.033748 0.200000 8.002957
v -0.033745 -0.200000 -7.798231
v -0.033746 0.200000 -7.798228
v -0.033746 0.200000 -7.997031
v -0.033745 -0.200000 -7.997034
v 0.082371 0.200000 -7.997031
v 0.082371 -0.200000 -7.997034
v -0.033748 0.200000 7.897456
v -0.033746 -0.200000 0.189569
v -0.033746 -0.200000 0.002961
v -0.033746 0.200000 -7.697310
v -0.033746 0.200000 -2.054265
v -0.033746 0.200000 -6.496110
v -0.033746 0.200000 -1.851468
v -0.033746 0.200000 -1.931548
v -0.033747 0.200000 1.912293
v -0.033746 0.200000 -0.730348
v -0.033748 0.200000 6.476855
v -0.033747 0.200000 2.041139
v -0.033748 0.200000 7.678055
v 7.966249 0.200000 0.189575
v 7.966249 0.200000 -0.169786
v 7.966249 0.200000 0.002968
v 7.966252 0.200000 -7.798224
v 7.966250 0.200000 -1.290907
v 7.966250 -0.200000 0.002965
v 7.966250 -0.200000 -7.798228
v 7.966250 -0.200000 0.189571
v 7.966248 0.200000 7.678059
v 7.966248 0.200000 6.476859
v 4.172480 0.200000 8.002961
v 7.850132 0.200000 8.002964
v 7.850132 2.837431 8.002964
v 4.172480 2.837431 8.002961
v 0.082371 -0.200000 0.002962
v 0.082371 -0.200000 0.189569
v 0.082371 -0.200000 -7.798231
v 0.082370 0.200000 -1.931548
v 2.965251 0.200000 -1.931546
v 2.965251 2.837431 -1.931546
v 0.082370 2.837431 -1.931548
v 7.850134 0.200000 0.002968
v 4.172482 0.200000 0.002966
v 4.172482 2.837431 0.002966
v 7.850134 2.837431 0.002968
v 3.038766 0.200000 -1.931546
v 3.038766 0.200000 -2.054263
v 3.038766 2.837431 -2.054263
v 3.038766 2.837431 -1.931546
v 7.850134 -0.200000 0.002964
v 7.850134 -0.200000 -7.798228
v 7.850134 -0.200000 0.189571
v 7.966252 0.200000 -7.997027
v 7.966252 2.837431 -7.997027
v 7.966252 2.837431 -7.798224
v 7.966250 -0.200000 -7.997031
v 7.850134 -0.200000 -7.997031
v 7.850136 0.200000 -7.997027
v 7.850134 -0.200000 8.002960
v -0.033746 2.837431 -7.997031
v 0.082371 2.837431 -7.997031
v 7.850134 -0.200000 7.897459
v 2.965252 -0.200000 -7.798229
v 2.965251 -0.200000 0.002963
v 2.965251 -0.200000 0.189570
v 4.172481 0.200000 6.476856
v 4.172482 0.200000 0.189572
v 4.172482 2.837431 0.189572
v 4.172481 2.837431 6.476856
v 2.965251 -0.200000 7.897459
v 2.965251 -0.200000 8.002959
v 2.965252 -0.200000 -7.997032
v 3.038766 0.200000 -1.851466
v 3.038766 2.837431 -1.851466
v 3.038767 0.200000 -7.697309
v 3.038767 0.200000 -7.798227
v 3.038767 2.837431 -7.798227
v 3.038767 2.837431 -7.697309
v 4.023772 0.200000 7.897460
v 3.038764 0.200000 7.897460
v 3.038764 2.837431 7.897460
v 4.023772 2.837431 7.897460
v 4.102751 0.200000 7.678055
v 4.102750 0.200000 7.897460
v 4.102750 2.837431 7.897460
v 4.102751 2.837431 7.678055
v 0.082371 0.200000 -6.496110
v 0.082370 0.200000 -2.054265
v 2.965251 0.200000 -2.054263
v 2.965252 0.200000 -6.496109
v 7.966248 2.837431 8.002965
v 4.102752 -0.200000 7.897459
v 4.102753 -0.200000 0.189570
v 2.965251 2.837431 -2.054263
v 2.965252 2.837431 -6.496109
v 4.102753 -0.200000 -7.798229
v 4.102753 -0.200000 -7.997032
v 4.102752 -0.200000 8.002959
v 3.038764 0.200000 8.002960
v 4.023772 0.200000 8.002961
v 4.023772 2.837431 8.002961
v 3.038764 2.837431 8.002960
v 4.102750 0.200000 8.002961
v 4.102750 2.837431 8.002961
v 4.102753 -0.200000 0.002963
v 4.023774 -0.200000 7.897459
v 4.023774 -0.200000 0.189570
v 4.023775 -0.200000 -7.798229
v 4.023775 -0.200000 -7.997032
v 4.023774 -0.200000 8.002959
v 7.966250 2.837431 -1.290907
v 3.038766 -0.200000 8.002959
v 2.965249 0.200000 8.002960
v 3.038767 -0.200000 -7.997032
v 4.023774 -0.200000 0.002963
v 2.965249 2.837431 8.002960
v 7.966249 2.837431 0.189575
v 7.966248 2.837431 6.476859
v 3.038766 -0.200000 7.897459
v 3.038766 -0.200000 0.189570
v 3.038767 -0.200000 -7.798229
v 4.102752 0.200000 0.189572
v 4.102752 2.837431 0.189572
v 3.038766 -0.200000 0.002963
v 0.082369 0.200000 7.678056
v 0.082369 0.200000 7.897457
v 2.965250 0.200000 7.897460
v 2.965250 0.200000 7.678059
v -0.033748 2.837431 7.897456
v -0.033748 2.837431 7.678055
v 2.965250 2.837431 7.897460
v 2.965250 2.837431 7.678059
v -0.033746 2.837431 -1.931548
v -0.033746 2.837431 -2.054265
v 0.082370 0.200000 -0.730347
v 0.082369 0.200000 1.912294
v 2.965250 0.200000 1.912296
v 2.965251 0.200000 -0.730346
v 7.850132 0.200000 7.678058
v 7.850132 0.200000 7.897463
v 7.850132 2.837431 7.897463
v 7.850132 2.837431 7.678058
v 7.966248 2.837431 7.897464
v 2.965250 2.837431 1.912296
v 2.965251 2.837431 -0.730346
v 3.038765 0.200000 6.476858
v 3.038765 2.837431 6.476858
v 0.082369 2.837431 7.897457
v -0.033748 2.837431 8.002957
v 0.082369 2.837431 8.002957
v 0.082370 2.837431 -2.054265
v 4.172480 0.200000 7.678055
v 4.172480 0.200000 7.897460
v -0.033746 2.837431 -7.697310
v 0.082371 2.837431 -7.697310
v 0.082371 2.837431 -7.798228
v -0.033746 2.837431 -7.798228
v 7.850136 0.200000 -7.798224
v 7.850134 0.200000 -0.169786
v 7.850134 0.200000 -1.290907
v 4.102751 0.200000 6.476855
v 3.038767 0.200000 -6.496109
v 3.038764 0.200000 7.678059
v 3.038766 0.200000 -0.730346
v 0.082369 2.837431 1.912294
v 0.082369 2.837431 2.041140
v 2.965250 2.837431 2.041142
v 7.966249 2.837431 -0.169786
v 7.850134 2.837431 -0.169786
v 7.966249 2.837431 0.002968
v 7.850134 2.837431 0.189575
v 7.850136 2.837431 -7.997027
v 7.850136 2.837431 -7.798224
v 7.966248 2.837431 7.678059
v 4.172480 2.837431 7.678055
v 4.172480 2.837431 7.897460
v 2.965252 2.837431 -7.798227
v 3.038764 2.837431 7.678059
v -0.033748 2.837431 6.476855
v 0.082369 2.837431 6.476856
v -0.033747 2.837431 2.041139
v 3.038766 2.837431 -0.730346
v -0.033747 2.837431 1.912293
v -0.033746 2.837431 -1.851468
v 0.082370 2.837431 -1.851468
v 3.038767 2.837431 -6.496109
v 7.850134 0.200000 0.189575
v 0.082369 0.200000 2.041140
v 2.965250 0.200000 2.041142
v 0.082370 0.200000 -1.851468
v 0.082371 0.200000 -7.798228
v 2.965252 0.200000 -7.798227
v 0.082369 0.200000 6.476856
v -0.033746 2.837431 -0.730348
v -0.033746 2.837431 -6.496110
v 0.082371 0.200000 -7.697310
v 4.102751 2.837431 6.476855
v 7.850132 2.837431 6.476858
v 7.850132 0.200000 6.476858
v 2.965252 2.837431 -7.697309
v 0.082369 2.837431 7.678056
v 2.965250 2.837431 6.476858
v 2.965250 0.200000 6.476858
v 2.965252 0.200000 -7.697309
v 0.082370 2.837431 -0.730347
v 2.965251 2.837431 -1.851466
v 2.965251 0.200000 -1.851466
v 0.082371 2.837431 -6.496110
v 7.850134 2.837431 -1.290907
vn 0.0000 -1.0000 0.0000
vn 1.0000 0.0000 0.0000
vn 0.0000 0.0000 1.0000
vn -1.0000 -0.0000 0.0000
vn 0.0000 0.0000 -1.0000
vn 0.0000 1.0000 0.0000
vn 0.0000 0.9927 -0.1205
vn 0.0000 0.9452 0.3265
vn 0.0000 0.9894 -0.1453
vn -0.9367 0.0000 -0.3500
vn 0.0000 0.3403 -0.9403
vn 0.0000 0.1781 -0.9840
usemtl None
s off
f 1//1 2//1 3//1
f 1//1 3//1 4//1
f 5//2 6//2 7//2
f 5//2 7//2 8//2
f 9//2 10//2 11//2
f 9//2 11//2 12//2
f 2//3 13//3 14//3
f 2//3 14//3 3//3
f 15//4 16//4 17//4
f 15//4 17//4 18//4
f 19//5 20//5 18//5
f 19//5 18//5 17//5
f 21//4 22//4 4//4
f 15//6 23//6 22//6
f 24//4 16//4 15//4
f 25//6 26//6 24//6
f 27//3 28//3 25//3
f 29//6 30//6 27//6
f 31//6 32//6 29//6
f 21//3 33//3 31//3
f 21//4 15//4 22//4
f 25//4 24//4 15//4
f 29//6 27//6 25//6
f 21//1 31//1 29//1
f 21//4 25//4 15//4
f 21//6 29//6 25//6
f 34//3 35//3 36//3
f 37//1 38//1 35//1
f 39//2 40//2 37//2
f 9//1 41//1 39//1
f 42//2 10//2 9//2
f 34//6 43//6 42//6
f 34//3 37//3 35//3
f 9//2 39//2 37//2
f 34//2 42//2 9//2
f 34//2 9//2 37//2
f 44//3 45//3 46//3
f 44//3 46//3 47//3
f 48//1 49//1 22//1
f 48//1 22//1 23//1
f 50//1 48//1 23//1
f 50//1 23//1 15//1
f 51//3 52//3 53//3
f 51//3 53//3 54//3
f 55//5 56//5 57//5
f 55//5 57//5 58//5
f 59//2 60//2 61//2
f 59//2 61//2 62//2
f 40//1 39//1 63//1
f 40//1 63//1 64//1
f 39//1 41//1 65//1
f 39//1 65//1 63//1
f 37//2 66//2 67//2
f 37//2 67//2 68//2
f 66//5 69//5 70//5
f 66//5 70//5 71//5
f 12//3 11//3 45//3
f 12//3 45//3 72//3
f 19//5 17//5 73//5
f 19//5 73//5 74//5
f 9//1 12//1 72//1
f 9//1 72//1 75//1
f 76//1 77//1 48//1
f 76//1 48//1 50//1
f 77//1 78//1 49//1
f 77//1 49//1 48//1
f 79//2 80//2 81//2
f 79//2 81//2 82//2
f 83//1 84//1 2//1
f 83//1 2//1 1//1
f 85//1 76//1 50//1
f 85//1 50//1 20//1
f 69//1 40//1 64//1
f 69//1 64//1 70//1
f 86//2 59//2 62//2
f 86//2 62//2 87//2
f 69//2 66//2 37//2
f 69//2 37//2 40//2
f 88//2 89//2 90//2
f 88//2 90//2 91//2
f 20//1 50//1 15//1
f 20//1 15//1 18//1
f 92//5 93//5 94//5
f 92//5 94//5 95//5
f 78//1 83//1 1//1
f 78//1 1//1 49//1
f 41//1 9//1 75//1
f 41//1 75//1 65//1
f 96//4 97//4 98//4
f 96//4 98//4 99//4
f 3//4 14//4 21//4
f 3//4 21//4 4//4
f 100//6 101//6 102//6
f 100//6 102//6 103//6
f 49//1 1//1 4//1
f 49//1 4//1 22//1
f 45//3 11//3 104//3
f 45//3 104//3 46//3
f 65//1 75//1 105//1
f 65//1 105//1 106//1
f 103//4 102//4 107//4
f 103//4 107//4 108//4
f 70//1 64//1 109//1
f 70//1 109//1 110//1
f 75//1 72//1 111//1
f 75//1 111//1 105//1
f 112//3 113//3 114//3
f 112//3 114//3 115//3
f 116//3 44//3 47//3
f 116//3 47//3 117//3
f 63//1 65//1 106//1
f 63//1 106//1 118//1
f 64//1 63//1 118//1
f 64//1 118//1 109//1
f 106//1 105//1 119//1
f 106//1 119//1 120//1
f 110//1 109//1 121//1
f 110//1 121//1 122//1
f 105//1 111//1 123//1
f 105//1 123//1 119//1
f 38//2 37//2 68//2
f 38//2 68//2 124//2
f 112//1 116//1 113//1
f 45//7 44//7 116//7
f 111//3 72//3 45//3
f 125//3 123//3 111//3
f 2//8 84//8 125//8
f 126//3 13//3 2//3
f 112//6 126//6 116//6
f 111//3 45//3 116//3
f 2//9 125//9 111//9
f 126//3 2//3 116//3
f 2//3 111//3 116//3
f 127//3 110//3 122//3
f 71//5 70//5 110//5
f 20//5 19//5 71//5
f 127//1 85//1 20//1
f 127//5 71//5 110//5
f 127//5 20//5 71//5
f 118//1 106//1 120//1
f 118//1 120//1 128//1
f 109//1 118//1 128//1
f 109//1 128//1 121//1
f 126//3 112//3 115//3
f 126//3 115//3 129//3
f 43//2 34//2 130//2
f 43//2 130//2 131//2
f 120//1 119//1 132//1
f 120//1 132//1 133//1
f 122//1 121//1 134//1
f 122//1 134//1 127//1
f 119//1 123//1 125//1
f 119//1 125//1 132//1
f 56//10 135//10 136//10
f 56//10 136//10 57//10
f 128//1 120//1 133//1
f 128//1 133//1 137//1
f 121//1 128//1 137//1
f 121//1 137//1 134//1
f 138//6 139//6 140//6
f 138//6 140//6 141//6
f 133//1 132//1 83//1
f 133//1 83//1 78//1
f 127//1 134//1 76//1
f 127//1 76//1 85//1
f 132//1 125//1 84//1
f 132//1 84//1 83//1
f 33//4 21//4 142//4
f 33//4 142//4 143//4
f 137//1 133//1 78//1
f 137//1 78//1 77//1
f 134//1 137//1 77//1
f 134//1 77//1 76//1
f 141//4 140//4 144//4
f 141//4 144//4 145//4
f 25//4 28//4 146//4
f 25//4 146//4 147//4
f 148//6 149//6 150//6
f 148//6 150//6 151//6
f 152//4 153//4 154//4
f 152//4 154//4 155//4
f 11//2 10//2 156//2
f 11//2 156//2 104//2
f 151//4 150//4 157//4
f 151//4 157//4 158//4
f 159//2 5//2 8//2
f 159//2 8//2 160//2
f 161//6 142//6 162//6
f 161//6 162//6 163//6
f 102//5 101//5 164//5
f 102//5 164//5 107//5
f 152//6 165//6 166//6
f 152//6 166//6 153//6
f 167//6 168//6 169//6
f 167//6 169//6 170//6
f 171//3 172//3 173//3
f 56//6 55//6 172//6
f 96//3 174//3 135//3
f 171//6 56//6 172//6
f 97//6 96//6 135//6
f 171//6 89//6 56//6
f 92//6 97//6 135//6
f 89//6 135//6 56//6
f 175//1 60//1 59//1
f 89//6 88//6 135//6
f 175//1 59//1 86//1
f 88//6 175//6 135//6
f 93//6 92//6 135//6
f 5//6 159//6 176//6
f 176//6 93//6 135//6
f 175//6 86//6 135//6
f 86//6 177//6 6//6
f 5//6 176//6 135//6
f 86//1 6//1 5//1
f 86//6 5//6 135//6
f 107//6 53//6 62//6
f 107//6 62//6 61//6
f 8//6 7//6 157//6
f 178//6 179//6 157//6
f 179//11 180//11 8//11
f 179//6 8//6 157//6
f 181//6 182//6 58//6
f 181//6 58//6 183//6
f 183//6 58//6 184//6
f 183//6 184//6 130//6
f 156//6 154//6 46//6
f 156//6 46//6 104//6
f 144//6 161//6 163//6
f 144//6 163//6 129//6
f 67//6 185//6 186//6
f 67//6 186//6 68//6
f 74//6 73//6 170//6
f 74//6 170//6 169//6
f 164//6 54//6 53//6
f 164//6 53//6 107//6
f 187//6 155//6 154//6
f 187//6 154//6 156//6
f 188//6 99//6 98//6
f 188//6 98//6 189//6
f 185//6 90//6 186//6
f 169//12 190//12 90//12
f 185//6 74//6 169//6
f 185//6 169//6 90//6
f 189//6 98//6 117//6
f 189//6 117//6 47//6
f 57//6 136//6 81//6
f 98//6 95//6 114//6
f 98//6 114//6 117//6
f 58//6 57//6 81//6
f 58//6 81//6 184//6
f 145//6 144//6 94//6
f 145//6 94//6 191//6
f 95//6 94//6 115//6
f 95//6 115//6 114//6
f 94//6 144//6 129//6
f 94//6 129//6 115//6
f 192//6 193//6 179//6
f 192//6 179//6 194//6
f 158//6 157//6 7//6
f 158//6 7//6 195//6
f 194//6 179//6 178//6
f 194//6 178//6 196//6
f 197//6 198//6 54//6
f 197//6 54//6 146//6
f 108//6 107//6 61//6
f 108//6 61//6 199//6
f 146//6 54//6 164//6
f 146//6 164//6 147//6
f 154//6 189//6 47//6
f 154//6 47//6 46//6
f 113//3 116//3 117//3
f 113//3 117//3 114//3
f 153//5 166//5 189//5
f 153//5 189//5 154//5
f 80//3 200//3 184//3
f 80//3 184//3 81//3
f 201//3 202//3 180//3
f 201//3 180//3 179//3
f 203//2 51//2 54//2
f 203//2 54//2 198//2
f 150//5 149//5 178//5
f 150//5 178//5 157//5
f 204//3 205//3 190//3
f 204//3 190//3 169//3
f 13//3 126//3 129//3
f 13//3 129//3 163//3
f 14//3 13//3 163//3
f 14//3 163//3 162//3
f 206//2 201//2 179//2
f 206//2 179//2 193//2
f 172//4 55//4 58//4
f 172//4 58//4 182//4
f 30//4 29//4 196//4
f 30//4 196//4 207//4
f 21//4 14//4 162//4
f 21//4 162//4 142//4
f 26//4 25//4 147//4
f 26//4 147//4 208//4
f 209//2 204//2 169//2
f 209//2 169//2 168//2
f 34//2 36//2 183//2
f 34//2 183//2 130//2
f 89//3 171//3 186//3
f 89//3 186//3 90//3
f 29//4 32//4 194//4
f 29//4 194//4 196//4
f 71//5 19//5 74//5
f 71//5 74//5 185//5
f 140//5 139//5 161//5
f 140//5 161//5 144//5
f 17//4 16//4 170//4
f 17//4 170//4 73//4
f 66//5 71//5 185//5
f 66//5 185//5 67//5
f 97//5 92//5 95//5
f 97//5 95//5 98//5
f 82//6 210//6 99//6
f 82//6 99//6 188//6
f 131//6 211//6 155//6
f 131//6 155//6 187//6
f 212//6 79//6 165//6
f 212//6 165//6 152//6
f 212//4 152//4 155//4
f 212//4 155//4 211//4
f 10//2 42//2 187//2
f 10//2 187//2 156//2
f 190//6 213//6 91//6
f 190//6 91//6 90//6
f 166//2 165//2 188//2
f 166//2 188//2 189//2
f 139//2 138//2 214//2
f 139//2 214//2 161//2
f 142//6 161//6 214//6
f 142//6 214//6 143//6
f 215//6 145//6 191//6
f 215//6 191//6 160//6
f 93//2 176//2 191//2
f 93//2 191//2 94//2
f 16//4 24//4 167//4
f 16//4 167//4 170//4
f 31//4 33//4 143//4
f 31//4 143//4 192//4
f 206//6 138//6 141//6
f 206//6 141//6 216//6
f 135//4 174//4 210//4
f 135//4 210//4 136//4
f 200//4 212//4 211//4
f 200//4 211//4 184//4
f 200//6 80//6 79//6
f 200//6 79//6 212//6
f 130//6 184//6 211//6
f 130//6 211//6 131//6
f 81//6 136//6 210//6
f 81//6 210//6 82//6
f 42//2 43//2 131//2
f 42//2 131//2 187//2
f 204//6 209//6 217//6
f 204//6 217//6 205//6
f 201//6 206//6 216//6
f 201//6 216//6 202//6
f 32//4 31//4 192//4
f 32//4 192//4 194//4
f 202//4 216//4 215//4
f 202//4 215//4 180//4
f 180//6 215//6 160//6
f 180//6 160//6 8//6
f 138//2 206//2 193//2
f 138//2 193//2 214//2
f 143//6 214//6 193//6
f 143//6 193//6 192//6
f 205//4 217//4 213//4
f 205//4 213//4 190//4
f 28//4 27//4 197//4
f 28//4 197//4 146//4
f 148//2 203//2 198//2
f 148//2 198//2 218//2
f 207//6 218//6 198//6
f 207//6 198//6 197//6
f 53//6 219//6 87//6
f 53//6 87//6 62//6
f 52//4 220//4 219//4
f 52//4 219//4 53//4
f 51//6 203//6 220//6
f 51//6 220//6 52//6
f 208//6 221//6 168//6
f 208//6 168//6 167//6
f 6//2 177//2 195//2
f 6//2 195//2 7//2
f 196//6 178//6 218//6
f 196//6 218//6 207//6
f 149//2 148//2 218//2
f 149//2 218//2 178//2
f 27//4 30//4 207//4
f 27//4 207//4 197//4
f 219//6 158//6 195//6
f 219//6 195//6 87//6
f 100//2 209//2 168//2
f 100//2 168//2 221//2
f 203//6 148//6 151//6
f 203//6 151//6 220//6
f 124//6 222//6 182//6
f 124//6 182//6 181//6
f 60//2 175//2 199//2
f 60//2 199//2 61//2
f 101//2 100//2 221//2
f 101//2 221//2 164//2
f 147//6 164//6 221//6
f 147//6 221//6 208//6
f 24//4 26//4 208//4
f 24//4 208//4 167//4
f 213//6 108//6 199//6
f 213//6 199//6 91//6
f 209//6 100//6 103//6
f 209//6 103//6 217//6
f 36//2 35//2 181//2
f 36//2 181//2 183//2
f 171//4 173//4 222//4
f 171//4 222//4 186//4
f 68//6 186//6 222//6
f 68//6 222//6 124//6
